<svg width="43" height="43" viewBox="0 0 43 43" fill="none" xmlns="http://www.w3.org/2000/svg">
<g clip-path="url(#clip0_171_262)">
<path d="M15.0519 6.8451C17.0815 0.598714 25.9185 0.598712 27.9481 6.8451V6.8451C28.8557 9.63857 31.4589 11.5299 34.3961 11.5299V11.5299C40.964 11.5299 43.6947 19.9344 38.3813 23.7948V23.7948C36.005 25.5213 35.0107 28.5815 35.9183 31.375V31.375C37.9479 37.6214 30.7986 42.8156 25.4851 38.9552V38.9552C23.1089 37.2287 19.8911 37.2287 17.5149 38.9552V38.9552C12.2014 42.8156 5.05211 37.6214 7.08169 31.375V31.375C7.98934 28.5815 6.99502 25.5213 4.61875 23.7948V23.7948C-0.694748 19.9344 2.03603 11.5299 8.60387 11.5299V11.5299C11.5411 11.5299 14.1443 9.63857 15.0519 6.8451V6.8451Z" fill="#4EFFEA"/>
</g>
<defs>
<clipPath id="clip0_171_262">
<rect width="43" height="43" fill="white"/>
</clipPath>
</defs>
</svg>
