<svg width="223" height="226" viewBox="0 0 223 226" fill="none" xmlns="http://www.w3.org/2000/svg">
<path d="M93.7086 141.835L122.147 100.193L104.07 134.564C103.995 134.708 103.955 134.868 103.955 135.03V168.043C103.955 169.132 105.45 169.436 105.876 168.433L132.302 106.143C132.501 105.673 133.023 105.429 133.512 105.577L145.433 109.176C145.896 109.315 146.193 109.766 146.138 110.246L140.397 160.666C140.361 160.985 140.174 161.267 139.894 161.425L105.08 181.038C104.511 181.359 103.791 181.056 103.623 180.424L93.5681 142.656C93.4932 142.375 93.5445 142.075 93.7086 141.835Z" fill="#4EFFEA"/>
<path d="M109.953 94.9493L106.656 96.3891C104.868 97.1702 103.134 95.1897 104.145 93.5203L110.043 83.781C110.405 83.1825 111.054 82.8169 111.753 82.8169L117.32 82.8169C117.461 82.8169 117.601 82.8021 117.738 82.7726L125.298 81.1554C127.495 80.6854 128.678 83.6365 126.765 84.8143L125.5 85.5929C123.835 86.618 124.479 89.1774 126.431 89.2925L153.068 90.8641C153.411 90.8843 153.743 90.9924 154.031 91.178L165.149 98.3212C165.722 98.6891 166.068 99.3231 166.068 100.004L166.068 112.652C166.068 114.876 162.982 115.439 162.197 113.358L161.19 110.689C160.97 110.106 160.491 109.659 159.895 109.479L111.33 94.8669C110.876 94.7303 110.388 94.7595 109.953 94.9493Z" fill="#FFDC4E"/>
<path d="M137.623 66.2922L132.086 85.9736C131.727 87.2494 132.686 88.5152 134.012 88.5152L146.788 88.5152C147.305 88.5152 147.801 88.3153 148.174 87.9575L151.488 84.7735C152.436 83.8631 151.791 82.262 150.477 82.262C148.746 82.262 148.456 79.7836 150.139 79.3832L154.011 78.4625C154.587 78.3255 155.068 77.9314 155.315 77.3937L159.789 67.6697C160.398 66.3447 159.43 64.8339 157.972 64.8339L139.548 64.8338C138.652 64.8338 137.866 65.4297 137.623 66.2922Z" fill="#7B4EFF"/>
<path d="M106.774 57.4034C108.004 30.1412 135.471 47.7523 149.051 59.9656C130.86 49.7606 116.6 53.8519 106.41 62.5026C104.133 85.2683 94.2976 89.3638 89.3511 88.4064C92.0551 80.451 97.7694 69.8377 106.41 62.5026C106.57 60.8973 106.693 59.1991 106.774 57.4034Z" fill="#FF5D4E"/>
<path d="M96.0229 172.007C87.7361 166.758 75.375 158.947 69.4713 155.274C68.5853 154.723 67.6702 155.605 68.2186 156.473L79.0995 173.694C79.2933 174.001 79.6423 174.186 80.0114 174.177L95.515 173.801C96.5085 173.777 96.8613 172.538 96.0229 172.007Z" fill="#7B4EFF"/>
<path d="M90.9493 160.997C86.6128 148.139 70.8759 110.367 65.1545 96.5734C64.7036 95.4863 63.0687 95.6847 63.0687 96.8208L63.0687 143.115C63.0687 143.503 63.2699 143.885 63.5898 144.105L89.6691 162.016C90.4266 162.537 91.2526 161.896 90.9493 160.997Z" fill="#FF5D4E"/>
</svg>
