<svg width="240" height="226" viewBox="0 0 240 226" fill="none" xmlns="http://www.w3.org/2000/svg">
<path d="M90.2827 52.9649C73.8542 70.157 89.0296 96.2136 102.325 111.42C105.898 115.507 110.808 118.099 116.084 119.377L117.965 119.833C125.769 121.724 134.009 119.986 140.385 115.105L146.323 110.56C146.685 110.283 146.955 109.904 147.098 109.472C147.918 107.003 140.75 97.8881 138.326 96.9445C136.543 96.2503 134.511 95.3146 132.189 94.0852C113.805 84.3524 144.191 61.0923 138.281 51.1937C132.371 41.2951 113.876 28.2753 90.2827 52.9649Z" fill="#FF5D4E"/>
<path d="M136.161 83.523C130.457 74.4906 139.737 68.9992 145.091 67.3825C156.536 62.8859 155.653 71.3549 155.294 81.8262C154.935 92.2975 143.292 94.8134 136.161 83.523Z" fill="#FF5D4E"/>
<path d="M148.678 42.6926C145.045 44.7501 139.446 49.4335 146.119 51.7078C154.459 54.5505 154.468 39.4136 148.678 42.6926Z" fill="#FF5D4E"/>
<path d="M129.282 127.602L76.811 116.989C73.8456 116.389 72.4997 120.543 75.2532 121.796C77.6398 122.883 77.0199 126.433 74.4064 126.646L70.8803 126.933C67.8355 127.182 67.0667 131.291 69.8158 132.623L113.397 153.744C114.325 154.194 115.42 154.135 116.294 153.588L172.329 118.588C173.65 117.763 172.755 115.726 171.253 116.141C170.027 116.481 169.055 115.091 169.794 114.055L172.633 110.081C174.507 107.457 171.487 104.128 168.693 105.739L131.376 127.261C130.743 127.626 129.998 127.747 129.282 127.602Z" fill="#FFDC4E"/>
<path d="M58.9273 85.4148C49.3488 64.9634 67.3523 56.9058 77.8811 55.357C78.1136 55.3228 78.3207 55.2133 78.4792 55.0399C85.1268 47.7701 94.6298 38.6649 81.1809 58.5795C68.4651 77.4088 87.1166 103.223 100.122 115.97C100.848 116.682 100.197 117.952 99.1994 117.753C92.2407 116.365 82.5015 114.434 81.1809 114.214C79.2174 113.886 71.0359 111.268 58.9273 85.4148Z" fill="#7B4EFF"/>
<path d="M163.978 58.5795C170.413 62.5397 161.171 89.6263 154.888 104.832C154.532 105.693 155.441 106.537 156.274 106.12L165.614 101.451C166.923 100.796 170.916 94.0545 176.414 72.3244C181.714 51.3748 167.77 42.9369 159.333 41.0871C158.817 40.9741 158.318 41.3055 158.225 41.8251C157.43 46.3029 157.635 54.6764 163.978 58.5795Z" fill="#7B4EFF"/>
<path d="M175.754 131.833C165.998 134.794 151.261 139.287 144.788 141.325C143.845 141.622 143.907 142.854 144.873 143.071L164.978 147.6C165.355 147.685 165.747 147.545 165.985 147.241L176.825 133.408C177.427 132.639 176.689 131.55 175.754 131.833Z" fill="#4EFFEA"/>
<path d="M71.5427 145.8C76.6267 146.275 82.6888 146.835 86.8679 147.204C87.9556 147.3 88.2761 146.027 87.2785 145.583L78.9002 141.854C78.6824 141.757 78.4371 141.741 78.2085 141.809L71.3522 143.848C70.2983 144.162 70.448 145.697 71.5427 145.8Z" fill="#4EFFEA"/>
<path d="M172.435 127.588C175.031 125.118 178.122 122.476 180.233 120.664C180.983 120.02 180.515 119.251 179.584 119.586L172.165 122.255C171.864 122.364 171.633 122.609 171.544 122.916L170.509 126.463C170.208 127.496 171.656 128.33 172.435 127.588Z" fill="#4EFFEA"/>
<path d="M135.145 24.9947C137.55 22.8436 141.158 25.5881 139.727 28.4799L139.34 29.2623C138.98 29.9912 139.154 30.8714 139.765 31.4077V31.4077C141.159 32.631 140.009 34.9072 138.197 34.5107L133.972 33.586C133.157 33.4079 132.467 32.8708 132.095 32.1252L130.007 27.949C129.292 26.5166 130.952 25.0709 132.272 25.9772V25.9772C132.862 26.3817 133.651 26.331 134.184 25.8544L135.145 24.9947Z" fill="#FFDC4E"/>
<path d="M86.0224 35.227C83.8126 32.8762 86.4672 29.201 89.3934 30.56L90.1852 30.9277C90.9227 31.2702 91.7984 31.0742 92.3195 30.45V30.45C93.508 29.0263 95.8118 30.1199 95.4602 31.9408L94.6401 36.188C94.4821 37.0065 93.9622 37.7095 93.226 38.1004L89.1026 40.2901C87.6884 41.0411 86.2021 39.4168 87.0755 38.0746V38.0746C87.4654 37.4755 87.3952 36.6875 86.9056 36.1666L86.0224 35.227Z" fill="#FFDC4E"/>
<path d="M106.944 34.9189C103.451 35.7086 100.76 31.8623 102.7 28.8515L105.337 24.7563C105.719 24.1626 105.938 23.4783 105.97 22.7728L106.275 16.0914C106.465 11.9248 112.107 10.7943 113.888 14.5659L117.522 22.2611C117.695 22.6293 117.925 22.9687 118.201 23.2678L121.821 27.186C124.252 29.8162 122.266 34.0698 118.689 33.8959L113.292 33.6335C112.93 33.6159 112.568 33.6474 112.215 33.7272L106.944 34.9189Z" fill="#FFDC4E"/>
<path d="M109.763 27.145C112.28 25.3836 118.146 28.2273 119.908 30.7449C121.669 33.2625 120.679 40.4551 118.161 42.2165C115.644 43.9779 106.832 39.498 105.071 36.9804C103.309 34.4628 107.245 28.9064 109.763 27.145Z" fill="white"/>
<path d="M110.058 33.6607C110.406 31.3371 112.572 29.7358 114.896 30.0842C117.219 30.4326 118.821 32.5987 118.472 34.9223C118.124 37.246 117.136 39.7182 114.812 39.3698C112.489 39.0215 109.709 35.9844 110.058 33.6607Z" fill="#4EFFEA"/>
<path d="M57.6217 114.441C60.3661 118.998 56.2642 124.607 51.0903 123.374L11.2117 113.864C6.48959 112.738 4.98999 106.762 8.62093 103.54L30.8754 83.7906C33.6823 81.2997 38.0612 81.9678 39.9976 85.1824L57.6217 114.441Z" fill="#FF5D4E"/>
<path d="M209.093 77.4494C211.97 74.4565 216.945 75.2202 218.792 78.9385L226.34 94.1331C228.079 97.6345 226.058 101.837 222.238 102.666L194.245 108.737C188.454 109.993 184.541 102.987 188.648 98.7153L209.093 77.4494Z" fill="#7B4EFF"/>
<path d="M50.081 156.624C52.3742 152.399 58.1451 151.69 61.3931 155.233L63.3863 157.408C64.8814 159.039 67.0596 159.867 69.2606 159.641L85.4006 157.986C91.9283 157.316 95.7065 165.189 91.1006 169.863L73.442 187.781C71.7717 189.476 71.0768 191.903 71.597 194.225L72.4716 198.129C73.7502 203.835 67.8826 208.5 62.6109 205.969L55.5099 202.559C53.4849 201.587 51.1052 201.707 49.1883 202.878V202.878C43.9384 206.085 37.5326 201.028 39.4337 195.177L40.2948 192.527C41.2319 189.643 40.2053 186.483 37.7519 184.701L32.5704 180.936C27.8594 177.514 29.1438 170.17 34.7368 168.55L42.4537 166.314C44.2509 165.793 45.7649 164.574 46.6576 162.93L50.081 156.624Z" fill="#4EFFEA"/>
<path d="M156.966 160.807C153.585 157.751 157.129 152.324 161.287 154.191L188.525 166.423C189.846 167.016 191.383 166.85 192.546 165.988L202.745 158.429C205.728 156.218 209.852 158.912 209.027 162.532L206.092 175.4C205.833 176.539 206.084 177.733 206.779 178.671L214.638 189.275C216.849 192.259 214.155 196.382 210.535 195.557L197.666 192.623C196.528 192.363 195.333 192.614 194.395 193.309L183.791 201.168C180.808 203.379 176.684 200.686 177.51 197.066L180.332 184.688C180.654 183.277 180.188 181.803 179.114 180.832L156.966 160.807Z" fill="#FFDC4E"/>
</svg>
