<svg width="105" height="651" viewBox="0 0 105 651" fill="none" xmlns="http://www.w3.org/2000/svg">
<g clip-path="url(#clip0_203_1496)">
<path d="M52.2269 567.112C49.5587 570.197 46.5922 572.5 43.3275 574.02C40.0627 575.541 36.88 576.533 33.7792 576.996C30.5927 577.386 26.5949 577.673 21.7859 577.858C15.9316 578.037 11.3058 578.53 7.90858 579.337C4.35144 580.155 1.31288 582.02 -1.20711 584.934C-8.10002 592.903 -7.38546 600.487 0.936584 607.685C5.05471 611.247 9.18095 612.718 13.3153 612.1C17.4496 611.482 21.6817 609.45 26.0115 606.005L36.4287 621.531C30.4059 627.107 23.2017 629.714 14.8163 629.352C6.34501 628.915 -1.79426 625.321 -9.60154 618.568C-17.5804 611.667 -22.322 603.97 -23.8262 595.479C-25.4162 586.914 -23.0983 579.032 -16.8724 571.834C-13.6113 568.063 -10.2313 565.369 -6.73256 563.752C-3.2338 562.134 0.114695 561.211 3.31293 560.981C6.42536 560.677 10.3607 560.636 15.119 560.856C21.0941 561.231 25.9831 561.041 29.7859 560.285C33.503 559.456 36.955 557.199 40.1421 553.514L42.2544 551.072L55.8957 562.871L52.2269 567.112ZM73.2703 530.038C79.0185 535.01 79.4097 540.367 74.4438 546.108L72.9986 547.779C68.0327 553.52 62.6757 553.905 56.9274 548.933L55.3831 547.597C49.6349 542.626 49.2438 537.269 54.2096 531.528L55.6549 529.857C60.6208 524.115 65.9778 523.731 71.726 528.703L73.2703 530.038Z" fill="#D966BC"/>
</g>
<path d="M13.2735 39.7321C15.7636 42.1997 17.5655 44.8775 18.6793 47.7656C19.7931 50.6537 20.4586 53.4407 20.6759 56.1267C20.8246 58.8819 20.8382 62.3269 20.7167 66.4615C20.5298 71.4922 20.6834 75.4876 21.1773 78.4478C21.6719 81.5457 23.095 84.26 25.4468 86.5905C31.8796 92.9651 38.4244 92.7936 45.0812 86.076C48.3753 82.7518 49.8775 79.2991 49.5877 75.7177C49.298 72.1364 47.8019 68.3891 45.0994 64.4757L59.0199 56.446C63.4512 61.9352 65.2675 68.2647 64.469 75.4344C63.6018 82.6734 60.0457 89.4439 53.8007 95.746C47.4184 102.187 40.5427 105.805 33.1735 106.601C25.7358 107.466 19.1118 105.019 13.3015 99.2617C10.258 96.2458 8.1445 93.1906 6.961 90.0962C5.77751 87.0018 5.18032 84.0766 5.16946 81.3206C5.08997 78.6339 5.28335 75.2568 5.74962 71.1893C6.4185 66.0873 6.53973 61.8837 6.1133 58.5787C5.61824 55.343 3.88356 52.2514 0.909245 49.304L-1.0621 47.3505L9.84955 36.3392L13.2735 39.7321ZM-17.2943 19.5295C-12.6964 14.8895 -8.08016 14.8657 -3.44577 19.4582L-2.09695 20.7948C2.53744 25.3873 2.55565 30.0035 -2.04234 34.6435L-3.27762 35.89C-7.87562 40.53 -12.4918 40.5538 -17.1262 35.9613L-18.475 34.6247C-23.1094 30.0323 -23.1276 25.416 -18.5296 20.7761L-17.2943 19.5295Z" fill="white"/>
<defs>
<clipPath id="clip0_203_1496">
<rect width="77.986" height="134.541" fill="white" transform="translate(16.9836 650.775) rotate(-139.142)"/>
</clipPath>
</defs>
</svg>
