<svg width="121" height="808" viewBox="0 0 121 808" fill="none" xmlns="http://www.w3.org/2000/svg">
<g clip-path="url(#clip0_203_1505)">
<path d="M67.7978 690.688C69.6884 684.103 72.5857 678.5 76.4896 673.878C80.3936 669.257 84.5453 665.499 88.9448 662.604C93.5275 659.761 99.4191 656.503 106.62 652.828C115.417 648.424 122.121 644.408 126.731 640.781C131.576 637.024 134.891 632.036 136.677 625.817C141.561 608.805 135.121 597.748 117.355 592.648C108.564 590.124 101.236 590.792 95.3696 594.652C89.5036 598.512 84.486 604.596 80.3168 612.903L53.481 596.585C58.7275 583.835 67.8699 574.778 80.9082 569.413C94.1297 564.1 109.074 563.837 125.74 568.622C142.773 573.512 155.431 581.898 163.716 593.781C172.184 605.716 174.212 619.367 169.801 634.733C167.49 642.781 164.239 649.273 160.047 654.208C155.854 659.142 151.402 662.913 146.688 665.52C142.158 668.179 136.189 671.019 128.779 674.04C119.407 677.686 112.088 681.426 106.824 685.26C101.743 689.148 98.0735 695.024 95.8153 702.89L94.3185 708.104L65.1981 699.743L67.7978 690.688ZM61.88 762.053C49.6092 758.53 45.2331 750.64 48.7518 738.384L49.7759 734.817C53.2946 722.561 61.1893 718.195 73.4602 721.718L76.7568 722.664C89.0277 726.187 93.4037 734.076 89.885 746.332L88.8609 749.9C85.3422 762.156 77.4475 766.522 65.1766 762.999L61.88 762.053Z" fill="white"/>
</g>
<g clip-path="url(#clip1_203_1505)">
<path d="M72.2574 234.692C72.9731 232.199 74.0698 230.078 75.5476 228.328C77.0254 226.579 78.5971 225.156 80.2625 224.06C81.9972 222.985 84.2275 221.751 86.9532 220.36C90.2835 218.693 92.8212 217.173 94.5661 215.8C96.4003 214.378 97.6553 212.489 98.3312 210.135C100.18 203.695 97.7421 199.51 91.0171 197.579C87.6893 196.624 84.9151 196.876 82.6946 198.338C80.474 199.799 78.5746 202.102 76.9964 205.246L66.8378 199.069C68.8238 194.243 72.2847 190.814 77.2203 188.783C82.2252 186.772 87.8822 186.673 94.1911 188.484C100.639 190.335 105.431 193.51 108.567 198.008C111.772 202.526 112.54 207.693 110.87 213.51C109.995 216.557 108.765 219.014 107.178 220.882C105.591 222.75 103.905 224.177 102.121 225.164C100.406 226.171 98.1464 227.246 95.3416 228.39C91.7936 229.77 89.0233 231.185 87.0306 232.637C85.1072 234.109 83.7181 236.333 82.8633 239.311L82.2967 241.284L71.2733 238.119L72.2574 234.692ZM70.0172 261.706C65.3721 260.373 63.7156 257.386 65.0476 252.747L65.4353 251.397C66.7672 246.757 69.7558 245.104 74.4008 246.438L75.6488 246.796C80.2938 248.13 81.9504 251.116 80.6184 255.756L80.2307 257.106C78.8988 261.745 75.9102 263.398 71.2651 262.065L70.0172 261.706Z" fill="#CAFF74"/>
</g>
<defs>
<clipPath id="clip0_203_1505">
<rect width="131" height="226" fill="white" transform="translate(62.4875 538.285) rotate(16.0187)"/>
</clipPath>
<clipPath id="clip1_203_1505">
<rect width="49.5895" height="85.5513" fill="white" transform="translate(70.2472 177) rotate(16.0187)"/>
</clipPath>
</defs>
</svg>
