<svg width="231" height="226" viewBox="0 0 231 226" fill="none" xmlns="http://www.w3.org/2000/svg">
<path d="M59.1136 104.605L74.1445 151.802C74.5838 153.182 75.5995 154.303 76.9289 154.876L116.485 171.932C117.517 172.378 118.669 172.462 119.756 172.172L161.083 161.127C162.928 160.634 164.331 159.133 164.699 157.259L172.552 117.208C173.526 112.242 167.35 109.138 163.946 112.883L153.626 124.235C151.137 126.973 146.639 126.152 145.277 122.712L122.615 65.46C120.962 61.2853 115.072 61.2354 113.349 65.3814L94.9461 109.663C93.763 112.51 90.3102 113.618 87.6911 111.991L66.5157 98.8404C62.5683 96.3889 57.7035 100.178 59.1136 104.605Z" fill="#FFDC4E"/>
<path d="M146.39 93.6169C147.682 101.254 149.546 112.187 150.514 117.623C150.688 118.597 151.913 118.694 152.251 117.765L157.561 103.16C157.693 102.797 157.604 102.391 157.333 102.116L148.087 92.7513C147.401 92.056 146.227 92.6535 146.39 93.6169Z" fill="#4EFFEA"/>
<path d="M89.7294 101.914C86.7847 94.7493 82.5562 84.4966 80.4126 79.4085C80.0285 78.4967 78.8121 78.6716 78.6874 79.6532L76.7291 95.0688C76.6804 95.4519 76.8567 95.8288 77.1819 96.037L88.2647 103.132C89.0876 103.659 90.1009 102.818 89.7294 101.914Z" fill="#7B4EFF"/>
<path d="M94.1289 88.092C97.7158 81.2264 102.839 71.3905 105.353 66.4747C105.804 65.5938 104.887 64.7756 104.055 65.312L90.998 73.7372C90.6735 73.9466 90.4986 74.3241 90.5486 74.707L92.2535 87.7555C92.3801 88.7244 93.6765 88.958 94.1289 88.092Z" fill="#FF5D4E"/>
<path d="M111.699 129.782C116.445 126.462 127.503 131.822 130.823 136.568C134.143 141.314 132.276 154.872 127.531 158.193C122.785 161.513 106.175 153.068 102.854 148.322C99.5341 143.576 106.953 133.103 111.699 129.782Z" fill="white"/>
<path d="M112.255 142.065C112.912 137.684 116.995 134.666 121.375 135.323C125.755 135.979 128.774 140.063 128.117 144.443C127.46 148.823 125.598 153.483 121.218 152.827C116.838 152.17 111.598 146.445 112.255 142.065Z" fill="#4EFFEA"/>
</svg>
