<svg width="43" height="43" viewBox="0 0 43 43" fill="none" xmlns="http://www.w3.org/2000/svg">
<g clip-path="url(#clip0_171_265)">
<path d="M17.7486 4.13802C19.0372 0.655548 23.9628 0.655548 25.2514 4.13802L28.2892 12.3475C28.6943 13.4424 29.5576 14.3057 30.6525 14.7108L38.862 17.7486C42.3445 19.0372 42.3445 23.9628 38.862 25.2514L30.6525 28.2892C29.5576 28.6943 28.6943 29.5576 28.2892 30.6525L25.2514 38.862C23.9628 42.3445 19.0372 42.3445 17.7486 38.862L14.7108 30.6525C14.3057 29.5576 13.4424 28.6943 12.3475 28.2892L4.13802 25.2514C0.655548 23.9628 0.655548 19.0372 4.13802 17.7486L12.3475 14.7108C13.4424 14.3057 14.3057 13.4424 14.7108 12.3475L17.7486 4.13802Z" fill="#FFDC4E"/>
</g>
<defs>
<clipPath id="clip0_171_265">
<rect width="43" height="43" fill="white"/>
</clipPath>
</defs>
</svg>
